<?xml version="1.0" standalone="no"?>
<!DOCTYPE svg PUBLIC "-//W3C//DTD SVG 20010904//EN"
 "http://www.w3.org/TR/2001/REC-SVG-20010904/DTD/svg10.dtd">
<svg version="1.0" xmlns="http://www.w3.org/2000/svg"
 width="192.000000pt" height="192.000000pt" viewBox="0 0 192.000000 192.000000"
 preserveAspectRatio="xMidYMid meet">

<g transform="translate(0.000000,192.000000) scale(0.100000,-0.100000)"
fill="#000000" stroke="none">
<path d="M378 1268 c-37 -41 -178 -315 -178 -348 0 -43 32 -54 142 -46 l87 6
3 -47 c6 -87 70 -87 76 1 l3 46 39 0 c30 0 40 4 45 20 9 29 -12 50 -51 50
l-33 0 -3 61 c-2 46 -8 65 -20 73 -34 21 -53 -4 -56 -73 l-3 -61 -69 0 -68 0
37 68 c20 37 56 99 79 139 46 79 52 107 23 123 -27 14 -29 13 -53 -12z"/>
<path d="M1144 1274 c-16 -9 -53 -33 -82 -55 -44 -34 -53 -45 -50 -67 4 -37
31 -39 73 -8 18 14 36 26 39 26 3 0 6 -85 6 -190 0 -180 1 -190 20 -200 12 -6
29 -9 39 -5 16 5 18 25 24 237 3 130 2 240 -3 249 -14 25 -34 29 -66 13z"/>
<path d="M1460 1268 c-32 -17 -54 -38 -76 -75 -34 -57 -44 -98 -44 -183 0 -78
16 -125 58 -172 83 -92 194 -92 274 1 44 51 58 98 58 193 0 92 -21 155 -66
202 -56 58 -131 70 -204 34z m129 -74 c37 -26 61 -90 61 -167 0 -78 -16 -125
-55 -155 -62 -49 -141 -12 -165 79 -15 53 -7 157 15 198 30 59 95 79 144 45z"/>
<path d="M630 1075 c-6 -8 -9 -23 -5 -35 6 -19 14 -20 155 -20 133 0 150 2
159 18 6 11 6 24 0 35 -9 15 -28 17 -153 17 -113 0 -146 -3 -156 -15z"/>
<path d="M625 910 c-14 -45 7 -51 164 -48 l146 3 0 30 0 30 -152 3 c-146 2
-152 2 -158 -18z"/>
</g>
</svg>
