<?xml version="1.0" standalone="no"?>
<!DOCTYPE svg PUBLIC "-//W3C//DTD SVG 20010904//EN"
 "http://www.w3.org/TR/2001/REC-SVG-20010904/DTD/svg10.dtd">
<svg version="1.0" xmlns="http://www.w3.org/2000/svg"
 width="192.000000pt" height="192.000000pt" viewBox="0 0 192.000000 192.000000"
 preserveAspectRatio="xMidYMid meet">

<g transform="translate(0.000000,192.000000) scale(0.100000,-0.100000)"
fill="#000000" stroke="none">
<path d="M830 1561 c-25 -8 -111 -46 -180 -79 -19 -9 -67 -48 -106 -87 -132
-130 -200 -321 -176 -489 17 -114 122 -321 207 -407 119 -120 318 -159 524
-104 170 46 286 126 372 259 63 95 81 156 87 282 5 130 -11 204 -58 258 -17
18 -37 53 -45 77 -36 102 -124 193 -229 238 -87 38 -339 71 -396 52z m118 -22
c9 0 -2 -6 -25 -13 -26 -8 -55 -11 -75 -6 -32 7 -32 7 -8 13 51 13 65 15 78
11 8 -2 21 -4 30 -5z m142 -44 c50 -25 182 -142 201 -178 13 -22 8 -21 -115
25 -65 25 -256 139 -256 153 0 7 63 23 93 24 15 1 50 -10 77 -24z m147 -21
c65 -31 136 -101 168 -165 14 -27 25 -51 25 -53 0 -9 -75 26 -82 39 -26 44
-110 134 -162 172 -51 39 -56 45 -31 39 17 -4 54 -18 82 -32z m-407 21 c0 -2
-19 -14 -42 -26 -24 -12 -69 -40 -101 -61 -70 -47 -64 -26 12 45 43 40 56 47
91 47 22 0 40 -2 40 -5z m135 -65 c78 -58 177 -107 280 -140 39 -12 80 -32 91
-45 31 -33 81 -159 94 -237 11 -61 10 -74 -10 -135 -49 -153 -150 -292 -247
-342 -78 -39 -133 -45 -221 -23 -148 38 -300 129 -410 246 -61 66 -62 68 -62
124 1 113 71 368 117 423 48 57 240 179 282 179 9 0 48 -23 86 -50z m-340 -16
c-20 -26 -43 -60 -51 -77 -9 -16 -36 -55 -62 -86 -66 -81 -106 -171 -110 -252
-4 -56 0 -76 23 -126 18 -41 25 -73 23 -99 l-3 -39 -24 60 c-29 74 -39 217
-21 296 17 77 82 206 131 263 36 40 113 106 125 106 2 0 -12 -21 -31 -46z
m802 -193 c15 -14 23 -38 28 -81 8 -72 2 -86 -15 -33 -7 21 -23 59 -37 86 -25
51 -15 64 24 28z m-932 -96 c-12 -44 -28 -113 -36 -154 -9 -52 -15 -68 -20
-55 -12 31 -9 126 5 166 14 40 66 132 71 126 2 -2 -7 -39 -20 -83z m1016 0
c11 -25 22 -78 25 -122 14 -185 -69 -367 -219 -485 l-42 -33 41 50 c103 126
141 220 156 390 6 66 10 148 10 183 0 34 1 62 4 62 3 0 14 -20 25 -45z m-848
-514 c134 -91 288 -146 393 -139 114 7 236 96 319 233 40 65 38 39 -2 -36 -68
-128 -184 -227 -289 -249 -132 -28 -334 37 -493 156 -65 49 -91 88 -106 164
l-7 35 68 -66 c38 -36 91 -80 117 -98z m6 -117 c35 -21 99 -50 143 -65 44 -15
82 -29 84 -32 2 -2 -20 0 -49 4 -108 17 -197 61 -257 125 -26 29 -29 34 -10
21 14 -9 54 -33 89 -53z"/>
<path d="M875 1297 c-105 -35 -187 -105 -228 -195 -31 -68 -31 -198 1 -266 37
-80 85 -131 160 -168 60 -30 76 -33 152 -33 76 0 93 3 152 33 122 60 188 166
188 302 0 135 -66 242 -185 301 -76 37 -174 47 -240 26z m199 -38 c64 -23 133
-86 168 -150 19 -37 23 -59 23 -139 0 -82 -3 -102 -25 -144 -32 -62 -107 -130
-167 -150 -60 -20 -156 -20 -216 0 -61 21 -141 93 -175 158 -22 43 -26 64 -26
136 -1 73 3 92 26 136 33 63 114 137 171 157 62 23 156 21 221 -4z"/>
</g>
</svg>
