<?xml version="1.0" standalone="no"?>
<!DOCTYPE svg PUBLIC "-//W3C//DTD SVG 20010904//EN"
 "http://www.w3.org/TR/2001/REC-SVG-20010904/DTD/svg10.dtd">
<svg version="1.0" xmlns="http://www.w3.org/2000/svg"
 width="96.000000pt" height="96.000000pt" viewBox="0 0 96.000000 96.000000"
 preserveAspectRatio="xMidYMid meet">

<g transform="translate(0.000000,96.000000) scale(0.100000,-0.100000)"
fill="#000000" stroke="none">
<path d="M266 754 c-16 -41 -10 -44 99 -44 l105 0 0 -50 0 -50 -105 0 -105 0
2 -207 3 -208 215 0 215 0 3 234 2 235 -52 53 -52 53 -162 0 c-138 0 -163 -2
-168 -16z m112 -421 c14 -12 13 -13 -6 -13 -19 0 -22 5 -21 38 1 26 3 30 6 12
2 -14 12 -31 21 -37z m69 20 c1 -18 -3 -33 -8 -33 -5 0 -9 6 -10 13 0 10 -2
10 -6 0 -10 -25 -23 -12 -23 23 0 31 3 35 23 32 17 -2 22 -10 24 -35z m80 21
c5 -13 -26 -54 -42 -54 -3 0 -5 16 -5 35 0 29 4 35 20 35 11 0 23 -7 27 -16z
m35 -29 c-2 -14 -8 -25 -13 -25 -5 0 -9 11 -9 25 0 14 6 25 14 25 9 0 12 -8 8
-25z m56 2 c4 -20 -25 -34 -40 -19 -15 15 -1 44 19 40 10 -2 19 -11 21 -21z"/>
<path d="M500 370 c0 -5 5 -10 11 -10 5 0 7 5 4 10 -3 6 -8 10 -11 10 -2 0 -4
-4 -4 -10z"/>
<path d="M590 344 c0 -8 5 -12 10 -9 6 4 8 11 5 16 -9 14 -15 11 -15 -7z"/>
<path d="M298 683 c7 -3 16 -2 19 1 4 3 -2 6 -13 5 -11 0 -14 -3 -6 -6z"/>
<path d="M332 650 c0 -14 2 -19 5 -12 2 6 2 18 0 25 -3 6 -5 1 -5 -13z"/>
<path d="M363 656 c1 -11 9 -21 17 -23 10 -3 11 -2 4 4 -6 4 -14 15 -17 23 -5
11 -6 9 -4 -4z"/>
</g>
</svg>
