<?xml version="1.0" standalone="no"?>
<!DOCTYPE svg PUBLIC "-//W3C//DTD SVG 20010904//EN"
 "http://www.w3.org/TR/2001/REC-SVG-20010904/DTD/svg10.dtd">
<svg version="1.0" xmlns="http://www.w3.org/2000/svg"
 width="192.000000pt" height="192.000000pt" viewBox="0 0 192.000000 192.000000"
 preserveAspectRatio="xMidYMid meet">

<g transform="translate(0.000000,192.000000) scale(0.100000,-0.100000)"
fill="#000000" stroke="none">
<path d="M834 1840 c-33 -5 -86 -16 -117 -25 l-57 -16 0 -239 0 -239 -57 -21
c-32 -12 -94 -35 -138 -50 -44 -15 -88 -31 -97 -35 -27 -11 -23 15 8 56 62 81
74 124 74 261 0 79 -4 129 -11 133 -27 17 -147 -97 -228 -218 -69 -102 -97
-165 -126 -284 -78 -313 19 -635 261 -862 94 -89 98 -85 102 74 3 144 10 118
-85 295 -32 61 -63 163 -63 210 0 40 17 39 122 -4 46 -18 112 -43 148 -55 36
-12 71 -25 77 -29 10 -6 13 -91 15 -346 l3 -339 65 -18 c35 -9 95 -20 132 -24
l68 -7 0 455 c0 352 -3 457 -12 464 -7 6 -57 26 -110 45 l-98 34 104 38 c58
21 107 45 110 53 3 8 6 170 6 359 0 321 -1 344 -17 343 -10 -1 -45 -5 -79 -9z
m-136 -831 c65 -23 132 -47 150 -55 l32 -13 0 -424 0 -424 -52 8 c-29 5 -66
13 -83 17 l-30 8 -3 352 -2 352 -28 6 c-15 4 -97 33 -182 65 -248 94 -275 82
-235 -103 13 -62 43 -133 106 -248 20 -38 24 -61 27 -150 l3 -105 -56 60
c-145 153 -222 326 -240 537 -4 48 -4 103 -1 123 l7 35 235 0 236 0 116 -41z"/>
<path d="M1000 955 l0 -898 63 7 c34 3 92 14 130 23 l67 17 1 301 c0 179 4
292 9 280 5 -11 18 -54 30 -95 28 -97 116 -353 130 -380 10 -19 12 -19 38 -3
28 17 123 95 153 124 80 79 169 226 208 345 44 134 56 264 37 391 -31 208
-101 354 -241 502 -86 91 -269 212 -295 196 -13 -8 -13 -37 -1 -67 5 -13 17
-50 26 -83 31 -110 45 -140 95 -195 72 -81 129 -187 157 -293 21 -79 24 -107
20 -202 -5 -102 -34 -234 -57 -258 -4 -5 -18 24 -30 65 -12 40 -25 84 -30 98
-5 14 -18 59 -30 100 -12 41 -25 86 -30 100 -5 14 -22 71 -39 128 -44 146 -88
293 -120 397 -15 50 -38 126 -51 170 -13 44 -30 85 -37 91 -7 6 -37 14 -66 18
-28 4 -71 9 -94 12 l-43 6 0 -897z m407 53 c6 -24 18 -65 26 -93 90 -299 112
-365 121 -362 17 6 53 74 87 167 27 73 32 103 37 208 l5 123 71 -3 71 -3 -1
-110 c-1 -174 -46 -320 -145 -467 -44 -66 -145 -173 -190 -202 l-27 -17 -62
193 c-34 106 -65 204 -70 218 -5 14 -18 59 -30 100 -12 41 -33 109 -46 150
-13 41 -25 81 -26 90 -2 8 -5 -185 -8 -429 l-5 -445 -30 -8 c-16 -4 -54 -12
-82 -17 l-53 -8 0 479 0 478 173 0 174 0 10 -42z"/>
</g>
</svg>
