<?xml version="1.0" standalone="no"?>
<!DOCTYPE svg PUBLIC "-//W3C//DTD SVG 20010904//EN"
 "http://www.w3.org/TR/2001/REC-SVG-20010904/DTD/svg10.dtd">
<svg version="1.0" xmlns="http://www.w3.org/2000/svg"
 width="192.000000pt" height="192.000000pt" viewBox="0 0 192.000000 192.000000"
 preserveAspectRatio="xMidYMid meet">

<g transform="translate(0.000000,192.000000) scale(0.100000,-0.100000)"
fill="#000000" stroke="none">
<path d="M712 1647 c-40 -42 -24 -97 28 -97 53 0 92 74 58 108 -19 19 -63 14
-86 -11z"/>
<path d="M1275 1638 c-9 -30 -64 -461 -59 -469 6 -10 48 -12 81 -3 29 8 28 5
58 229 13 105 27 205 30 223 l6 32 -56 0 c-36 0 -57 -4 -60 -12z"/>
<path d="M326 1603 c-6 -29 -30 -215 -41 -314 -5 -50 -3 -60 17 -83 31 -36 82
-45 198 -37 l95 6 6 43 c3 23 3 44 1 47 -3 3 -40 5 -83 5 -102 0 -109 3 -109
51 0 34 18 178 35 277 l6 32 -60 0 c-57 0 -60 -1 -65 -27z"/>
<path d="M893 1510 c-12 -5 -24 -17 -27 -27 -6 -18 -46 -269 -46 -288 0 -5 24
-10 54 -10 l55 0 10 60 c5 33 13 86 17 118 7 65 26 83 68 67 34 -13 40 -55 22
-160 -8 -47 -11 -89 -6 -93 4 -5 29 -7 56 -5 l49 3 14 102 c17 124 10 166 -34
210 -33 33 -34 33 -121 32 -49 0 -99 -4 -111 -9z"/>
<path d="M675 1488 c-2 -13 -11 -75 -20 -138 -8 -63 -18 -130 -21 -147 l-5
-33 55 0 c64 0 55 -17 86 166 30 180 31 174 -35 174 -49 0 -55 -3 -60 -22z"/>
<path d="M1427 1441 c-31 -38 -57 -72 -57 -76 0 -3 25 -62 56 -130 l56 -125
54 0 c30 0 54 4 54 10 0 5 -23 62 -52 126 -36 80 -49 120 -42 129 5 7 33 41
62 74 l54 61 -64 0 -64 0 -57 -69z"/>
<path d="M822 1123 c-32 -28 -36 -59 -13 -82 28 -28 57 -26 86 4 27 26 32 64
13 83 -18 18 -63 15 -86 -5z"/>
<path d="M499 1103 c-19 -3 -32 -17 -54 -61 -46 -93 -175 -383 -175 -393 0 -5
25 -9 56 -9 55 0 56 0 72 40 l17 40 72 0 72 0 3 -37 3 -38 58 -3 c54 -3 57 -2
57 20 0 58 -70 432 -82 440 -13 8 -51 8 -99 1z m40 -267 c-2 -2 -21 -6 -41 -9
l-37 -6 14 37 c7 20 21 55 31 77 l18 40 9 -68 c5 -37 8 -69 6 -71z"/>
<path d="M1357 978 c-4 -35 -10 -100 -13 -145 l-7 -83 37 0 c44 0 47 6 76 145
11 55 22 110 25 123 5 21 2 22 -53 22 l-59 0 -6 -62z"/>
<path d="M786 978 c-3 -7 -14 -80 -26 -163 -12 -82 -27 -161 -33 -175 -7 -13
-28 -34 -47 -45 -35 -20 -35 -21 -26 -62 10 -49 21 -52 81 -24 49 22 79 54
100 104 16 38 55 282 55 345 0 32 0 32 -50 32 -32 0 -52 -5 -54 -12z"/>
<path d="M1035 973 c-72 -38 -104 -95 -105 -186 0 -114 45 -158 162 -156 34 0
81 6 103 13 39 11 40 12 51 81 7 39 16 111 19 161 l8 91 -33 6 c-60 13 -174 7
-205 -10z m120 -83 c6 -9 -7 -92 -21 -142 -8 -28 -60 -23 -79 6 -20 30 -6 103
26 129 23 19 64 23 74 7z"/>
<path d="M1337 699 c-30 -17 -40 -58 -22 -85 32 -50 115 -17 115 46 0 43 -49
64 -93 39z"/>
<path d="M1100 443 c-286 -21 -883 -112 -909 -138 -2 -2 22 -16 52 -31 l56
-28 168 38 c324 72 656 119 1058 150 l180 13 -280 0 c-154 0 -300 -2 -325 -4z"/>
</g>
</svg>
