<?xml version="1.0" standalone="no"?>
<!DOCTYPE svg PUBLIC "-//W3C//DTD SVG 20010904//EN"
 "http://www.w3.org/TR/2001/REC-SVG-20010904/DTD/svg10.dtd">
<svg version="1.0" xmlns="http://www.w3.org/2000/svg"
 width="192.000000pt" height="192.000000pt" viewBox="0 0 192.000000 192.000000"
 preserveAspectRatio="xMidYMid meet">

<g transform="translate(0.000000,192.000000) scale(0.100000,-0.100000)"
fill="#000000" stroke="none">
<path d="M835 1755 c-5 -2 -43 -11 -83 -20 -225 -52 -431 -221 -532 -438 -38
-80 -49 -137 -28 -137 10 0 24 24 38 63 80 221 256 387 495 468 63 21 87 24
230 23 148 0 166 -2 235 -27 41 -15 104 -45 141 -67 37 -22 70 -40 74 -40 3 0
5 10 3 21 -5 33 -145 104 -263 134 -74 19 -122 25 -199 24 -55 0 -105 -2 -111
-4z"/>
<path d="M941 1631 c-22 -14 -2 -31 37 -31 59 0 197 -37 259 -69 131 -67 246
-191 300 -323 28 -68 53 -89 53 -44 0 14 -19 62 -42 108 -63 123 -175 232
-300 291 -51 25 -115 50 -143 55 -81 17 -149 22 -164 13z"/>
<path d="M471 1433 c-105 -106 -152 -191 -182 -325 -31 -139 -14 -342 30 -356
11 -4 12 4 7 34 -4 22 -9 85 -12 142 -12 196 44 340 189 485 48 49 87 93 87
98 0 27 -42 -1 -119 -78z"/>
<path d="M785 1486 c-88 -28 -145 -61 -215 -125 -43 -39 -52 -52 -43 -62 10
-10 20 -5 50 23 130 116 283 169 433 147 84 -12 112 -11 108 4 -14 41 -220 50
-333 13z"/>
<path d="M1367 1283 c-4 -3 6 -29 22 -57 16 -28 39 -82 51 -120 33 -100 25
-241 -19 -346 -36 -86 -36 -90 -16 -90 8 0 24 19 36 41 86 170 73 401 -33 552
-20 27 -29 32 -41 20z"/>
<path d="M1670 1226 c0 -3 9 -42 20 -88 91 -381 -131 -780 -505 -905 -73 -25
-94 -27 -235 -28 -173 0 -227 12 -361 82 -154 80 -296 236 -350 386 -8 24 -19
37 -31 37 -25 0 -23 -15 12 -89 82 -172 230 -317 405 -394 94 -42 171 -59 292
-64 94 -5 129 -2 210 17 236 55 439 217 543 435 72 152 95 318 66 483 -18 103
-29 132 -51 132 -8 0 -15 -2 -15 -4z"/>
<path d="M705 1096 c-102 -44 -122 -172 -40 -245 70 -61 148 -54 230 21 l55
50 54 -50 c80 -76 162 -83 230 -19 61 58 61 156 0 214 -68 64 -150 57 -230
-19 l-54 -51 -50 47 c-72 67 -127 82 -195 52z m164 -90 l46 -47 -52 -49 c-45
-44 -57 -50 -93 -50 -34 0 -48 6 -76 34 -47 47 -46 86 1 133 33 33 39 35 82
30 38 -4 54 -13 92 -51z m319 38 c33 -23 54 -70 47 -104 -10 -44 -58 -80 -107
-80 -34 0 -47 7 -91 49 l-52 50 40 41 c22 23 49 46 60 50 32 14 79 11 103 -6z"/>
<path d="M400 931 c0 -132 64 -273 167 -369 72 -66 137 -104 231 -132 63 -19
89 -22 175 -17 111 5 180 24 185 50 4 21 -6 21 -75 1 -85 -25 -249 -16 -327
18 -119 51 -219 144 -274 253 -23 46 -52 175 -52 230 0 24 -4 35 -15 35 -12 0
-15 -14 -15 -69z"/>
<path d="M1531 698 c-91 -190 -238 -311 -433 -358 -182 -44 -356 -11 -520 98
-31 20 -41 23 -51 13 -16 -17 24 -49 118 -96 101 -49 183 -68 300 -69 125 0
185 14 303 71 125 59 237 168 300 291 23 46 42 92 42 102 0 45 -23 25 -59 -52z"/>
</g>
</svg>
