<?xml version="1.0" standalone="no"?>
<!DOCTYPE svg PUBLIC "-//W3C//DTD SVG 20010904//EN"
 "http://www.w3.org/TR/2001/REC-SVG-20010904/DTD/svg10.dtd">
<svg version="1.0" xmlns="http://www.w3.org/2000/svg"
 width="192.000000pt" height="192.000000pt" viewBox="0 0 192.000000 192.000000"
 preserveAspectRatio="xMidYMid meet">

<g transform="translate(0.000000,192.000000) scale(0.100000,-0.100000)"
fill="#000000" stroke="none">
<path d="M1260 1301 c-154 -51 -249 -167 -269 -327 -10 -79 -22 -104 -62 -128
-52 -31 -133 -12 -161 37 -8 13 -15 74 -18 152 l-5 130 -45 0 -45 0 -3 -119
c-3 -142 11 -195 66 -249 92 -90 227 -86 311 10 40 45 61 106 61 177 0 35 38
117 73 153 41 45 115 73 191 73 87 0 139 -23 199 -90 l43 -48 28 34 c33 42 29
60 -24 108 -71 64 -134 89 -230 92 -47 2 -96 0 -110 -5z"/>
<path d="M337 1160 c-41 -8 -96 -43 -125 -80 -33 -44 -42 -90 -42 -222 l0
-129 48 3 47 3 5 136 c5 145 10 158 61 185 40 20 81 17 120 -9 46 -31 58 -72
58 -204 l1 -113 45 0 45 0 0 129 c0 72 -5 143 -12 162 -35 102 -139 160 -251
139z"/>
<path d="M1249 1137 c-68 -36 -103 -93 -107 -176 -5 -76 14 -125 65 -173 31
-30 100 -58 143 -58 37 0 103 24 140 51 38 29 80 112 80 160 0 83 -48 162
-122 200 -54 27 -142 26 -199 -4z m155 -82 c85 -41 88 -167 5 -211 -80 -41
-179 18 -179 108 0 35 37 87 73 103 42 18 62 18 101 0z"/>
<path d="M1665 1080 c-23 -26 -44 -87 -45 -132 0 -56 -36 -141 -77 -183 -53
-55 -114 -80 -193 -79 -98 1 -176 45 -230 131 -8 13 -13 15 -17 5 -2 -7 -16
-26 -30 -42 l-24 -29 23 -32 c29 -40 130 -107 174 -115 19 -3 37 -10 40 -15 7
-12 131 -11 139 1 3 6 14 10 24 10 30 0 113 49 159 93 82 80 126 227 102 342
-13 64 -21 72 -45 45z"/>
</g>
</svg>
